<svg width="64" height="63" viewBox="0 0 64 63" fill="none" xmlns="http://www.w3.org/2000/svg">
<path d="M56.92 50.5886C56.2992 49.9734 56.3117 49.0047 56.8087 48.2875C60.2404 43.3365 62.2486 37.3416 62.2486 30.882C62.2486 13.8793 48.3352 0.0959473 31.1721 0.0959473C14.0091 0.0959473 0.0957031 13.8793 0.0957031 30.882C0.0957031 43.8455 8.05461 54.1028 19.5185 59.263C25.2464 61.8413 30.2258 62.6302 37.9701 62.6302C46.6448 62.6302 54.8535 60.6534 62.1622 57.1298C63.7669 56.3561 64.9039 55.0494 61.866 53.718C61.1614 53.4092 60.4764 53.0646 59.8134 52.6866C58.7409 52.1368 57.7657 51.4268 56.92 50.5886Z" fill="#6FCF97"/>
</svg>
