<svg width="21" height="17" viewBox="0 0 21 17" fill="none" xmlns="http://www.w3.org/2000/svg">
    <path
        d="M20.7137 2.84429C20.0907 3.12481 19.3788 3.29745 18.7113 3.40534C19.045 3.36219 19.5123 2.77955 19.7125 2.56376C20.0017 2.21849 20.2465 1.80849 20.38 1.37691C20.4022 1.33375 20.4022 1.29059 20.38 1.26901C20.3355 1.24743 20.3132 1.26901 20.2687 1.26901C19.5123 1.65744 18.7335 1.95954 17.8881 2.15376C17.8213 2.17533 17.7768 2.15376 17.7323 2.1106C17.6656 2.02428 17.5988 1.95954 17.5321 1.89481C17.1761 1.61428 16.7979 1.37691 16.3751 1.20427C15.8189 0.988483 15.1959 0.880587 14.5952 0.923746C14.0167 0.966904 13.4382 1.11796 12.9265 1.37691C12.4148 1.63586 11.9475 2.0027 11.5693 2.45586C11.1911 2.90902 10.9018 3.4485 10.7683 4.03114C10.6348 4.59219 10.6348 5.13167 10.7238 5.69273C10.7461 5.77905 10.7238 5.80063 10.6348 5.77905C7.34195 5.32588 4.62754 4.20377 2.42487 1.76533C2.33587 1.65744 2.26912 1.65744 2.20238 1.76533C1.24566 3.16797 1.71289 5.4122 2.91435 6.53432C3.0701 6.68537 3.24809 6.83642 3.42608 6.9659C3.35934 6.98748 2.55836 6.90116 1.84639 6.53432C1.75739 6.46958 1.71289 6.51274 1.69064 6.62063C1.69064 6.77169 1.69064 6.90116 1.71289 7.07379C1.89089 8.49801 2.91435 9.81434 4.2938 10.3107C4.44955 10.3754 4.64979 10.4401 4.82778 10.4617C4.51629 10.5265 4.18256 10.5696 3.27034 10.5049C3.15909 10.4833 3.11459 10.548 3.15909 10.6343C3.82657 12.447 5.29502 12.9865 6.40748 13.2886C6.56322 13.3102 6.69672 13.3102 6.85246 13.3533C6.85246 13.3749 6.83021 13.3749 6.83021 13.3749C6.47423 13.9144 5.20602 14.3244 4.60529 14.5186C3.53733 14.8854 2.35812 15.0365 1.22341 14.9286C1.04542 14.907 1.00092 14.907 0.95642 14.9286C0.911922 14.9502 0.95642 14.9933 1.00092 15.0365C1.22341 15.1875 1.46815 15.317 1.71289 15.4465C2.42487 15.8133 3.18134 16.1154 3.96006 16.3312C8.00942 17.4102 12.5928 16.6118 15.6409 13.677C18.0216 11.3896 18.867 8.21749 18.867 5.02378C18.867 4.8943 19.0228 4.82957 19.1118 4.76483C19.7348 4.31167 20.2242 3.77219 20.6915 3.16797C20.8027 3.0385 20.7805 2.90902 20.7805 2.86587V2.84429C20.7805 2.80113 20.8027 2.80113 20.7137 2.84429Z"
        fill="#111111"/>
</svg>
